<?xml version="1.0" standalone="no"?>
<!DOCTYPE svg PUBLIC "-//W3C//DTD SVG 20010904//EN"
 "http://www.w3.org/TR/2001/REC-SVG-20010904/DTD/svg10.dtd">
<svg version="1.0" xmlns="http://www.w3.org/2000/svg"
 width="141.000000pt" height="57.000000pt" viewBox="0 0 141.000000 57.000000"
 preserveAspectRatio="xMidYMid meet">

<g transform="translate(0.000000,57.000000) scale(0.100000,-0.100000)"
fill="#000000" stroke="none">
<path d="M966 406 c-47 -85 -98 -175 -112 -201 l-26 -46 73 3 73 3 78 137 78
138 -33 60 c-17 33 -35 60 -38 60 -3 0 -45 -69 -93 -154z"/>
<path d="M97 426 c-51 -19 -75 -42 -88 -87 -22 -72 11 -148 77 -175 35 -15
101 -18 153 -8 l31 6 0 80 0 79 -57 -3 c-51 -3 -58 -6 -61 -25 -2 -16 3 -22
20 -25 18 -2 23 -9 23 -33 0 -28 -3 -30 -33 -28 -20 0 -44 11 -58 24 -35 33
-31 103 7 131 28 21 78 27 122 15 25 -7 27 -5 27 22 0 21 -6 30 -22 35 -38 10
-101 6 -141 -8z"/>
<path d="M322 293 l3 -138 32 -3 32 -3 3 58 3 58 53 3 c48 3 52 5 52 28 0 23
-3 24 -55 24 -54 0 -55 0 -55 30 l0 30 60 0 c57 0 60 1 60 25 0 25 0 25 -95
25 l-96 0 3 -137z"/>
<path d="M606 422 c-9 -15 -96 -252 -96 -262 0 -6 13 -10 30 -10 23 0 33 7 45
30 14 28 20 30 69 30 51 0 55 -2 65 -30 8 -26 15 -30 45 -30 22 0 36 5 36 13
-1 6 -23 68 -49 137 l-48 125 -46 3 c-25 2 -48 -1 -51 -6z m68 -105 l14 -47
-34 0 c-19 0 -34 2 -34 4 0 1 5 18 11 37 6 19 13 40 15 48 6 20 12 11 28 -42z"/>
<path d="M1246 278 c9 -18 28 -52 42 -76 l25 -43 16 28 c9 15 29 49 44 76 l28
47 -86 0 -86 0 17 -32z"/>
<path d="M42 78 c-26 -26 -6 -69 32 -67 18 1 17 2 -4 8 -18 5 -25 14 -25 31 0
17 7 26 25 31 21 6 22 7 5 8 -12 1 -26 -4 -33 -11z"/>
<path d="M130 75 c-26 -31 13 -82 44 -56 19 16 21 42 4 59 -16 16 -33 15 -48
-3z m45 -25 c0 -29 -32 -41 -41 -16 -9 24 4 48 23 44 12 -2 18 -12 18 -28z"/>
<path d="M221 48 c1 -40 2 -41 8 -13 l8 30 13 -27 c19 -40 30 -34 29 15 -1 39
-2 40 -8 12 l-8 -30 -13 28 c-19 39 -30 33 -29 -15z"/>
<path d="M315 79 c-4 -5 0 -18 9 -28 20 -22 20 -28 -1 -34 -17 -4 -17 -5 0 -6
25 -1 34 29 14 44 -22 16 -21 22 1 28 15 4 15 5 0 6 -9 0 -20 -4 -23 -10z"/>
<path d="M394 50 c1 -28 5 -35 21 -35 16 0 20 7 21 40 l1 40 -4 -37 c-5 -48
-30 -51 -36 -5 -4 32 -4 32 -3 -3z"/>
<path d="M482 53 c-2 -39 0 -43 21 -42 16 1 17 3 5 6 -11 3 -18 17 -21 41 l-4
37 -1 -42z"/>
<path d="M537 82 c6 -4 13 -23 16 -42 l4 -35 1 37 c1 20 8 39 15 41 6 3 -1 6
-18 6 -17 0 -25 -3 -18 -7z"/>
<path d="M613 50 c0 -25 2 -35 4 -22 2 12 2 32 0 45 -2 12 -4 2 -4 -23z"/>
<path d="M662 50 c0 -41 1 -42 8 -15 4 17 8 25 9 19 0 -5 8 -19 16 -30 13 -18
14 -16 13 26 0 41 -1 42 -8 15 -4 -16 -8 -25 -9 -19 0 5 -8 19 -16 30 -13 18
-14 16 -13 -26z"/>
<path d="M760 76 c-20 -26 -8 -61 23 -64 22 -3 27 1 27 17 0 13 -6 21 -17 21
-15 0 -16 -2 -3 -10 18 -11 7 -25 -15 -17 -23 9 -18 46 8 57 15 6 17 9 6 9 -9
1 -22 -6 -29 -13z"/>
<path d="M910 76 c-20 -26 -8 -61 23 -64 22 -3 27 1 27 17 0 13 -6 21 -17 21
-15 0 -16 -2 -3 -10 18 -11 7 -25 -15 -17 -23 9 -18 46 8 57 15 6 17 9 6 9 -9
1 -22 -6 -29 -13z"/>
<path d="M991 48 c1 -24 3 -35 6 -25 6 21 19 22 31 1 7 -12 9 -6 8 22 -1 32
-5 40 -23 42 -21 3 -23 0 -22 -40z m37 20 c-6 -18 -28 -21 -28 -4 0 9 7 16 16
16 9 0 14 -5 12 -12z"/>
<path d="M1074 76 c-12 -31 0 -61 25 -61 31 0 50 28 35 53 -14 22 -52 28 -60
8z m51 -26 c0 -29 -32 -41 -41 -16 -9 24 4 48 23 44 12 -2 18 -12 18 -28z"/>
<path d="M1174 50 c1 -28 5 -35 21 -35 16 0 20 7 21 40 l1 40 -4 -37 c-5 -48
-30 -51 -36 -5 -4 32 -4 32 -3 -3z"/>
<path d="M1261 48 c0 -24 3 -36 6 -28 4 8 13 20 21 26 18 13 9 44 -13 44 -11
0 -15 -11 -14 -42z m29 17 c0 -8 -4 -15 -10 -15 -5 0 -10 7 -10 15 0 8 5 15
10 15 6 0 10 -7 10 -15z"/>
</g>
</svg>
